<?xml version="1.0" encoding="UTF-8" standalone="no"?>
<svg
   xmlns:dc="http://purl.org/dc/elements/1.1/"
   xmlns:cc="http://creativecommons.org/ns#"
   xmlns:rdf="http://www.w3.org/1999/02/22-rdf-syntax-ns#"
   xmlns:svg="http://www.w3.org/2000/svg"
   xmlns="http://www.w3.org/2000/svg"
   xmlns:sodipodi="http://sodipodi.sourceforge.net/DTD/sodipodi-0.dtd"
   xmlns:inkscape="http://www.inkscape.org/namespaces/inkscape"
   height="456pt"
   viewBox="-2 0 456 456.00056"
   width="456pt"
   version="1.1"
   id="svg3797"
   sodipodi:docname="cheers_90degrees.svg"
   inkscape:version="0.92.3 (2405546, 2018-03-11)">
  <metadata
     id="metadata3803">
    <rdf:RDF>
      <cc:Work
         rdf:about="">
        <dc:format>image/svg+xml</dc:format>
        <dc:type
           rdf:resource="http://purl.org/dc/dcmitype/StillImage" />
        <dc:title></dc:title>
      </cc:Work>
    </rdf:RDF>
  </metadata>
  <defs
     id="defs3801" />
  <sodipodi:namedview
     pagecolor="#ffffff"
     bordercolor="#666666"
     borderopacity="1"
     objecttolerance="10"
     gridtolerance="10"
     guidetolerance="10"
     inkscape:pageopacity="0"
     inkscape:pageshadow="2"
     inkscape:window-width="1920"
     inkscape:window-height="1017"
     id="namedview3799"
     showgrid="false"
     inkscape:zoom="1.3947368"
     inkscape:cx="181.75472"
     inkscape:cy="304"
     inkscape:window-x="-8"
     inkscape:window-y="-8"
     inkscape:window-maximized="1"
     inkscape:current-layer="svg3797" />
  <g
     id="g3824"
     transform="rotate(-90,225.60269,228.00156)">
    <path
       id="path3759"
       d="m 228.33984,431.46484 6.88282,-39.28906 c 0,0 -62.50391,-182.15234 -62.91407,-184.58984 -0.8125,-4.67969 -0.93359,-9.45703 -0.35937,-14.17188 L 96.253906,182.55078 94.125,194.72656 63.726562,189.40625 c -9.6875,-1.69922 -19.652343,0.51953 -27.699218,6.16797 -8.050782,5.65234 -13.519532,14.27344 -15.207032,23.96094 L 0.550781,335.19922 c -3.507812,20.16015 9.976563,39.35156 30.132813,42.8789 l 30.402344,5.32813 -3.199219,18.25781 c -4.394531,-0.86328 -8.910157,0.71485 -11.808594,4.12891 -2.898437,3.41015 -3.726563,8.125 -2.160156,12.32031 1.566406,4.19531 5.277343,7.21485 9.703125,7.89453 l 170.398436,29.8086 c 6.72656,1.17578 13.12891,-3.32422 14.30469,-10.04688 C 239.5,439.04297 235,432.64062 228.27734,431.46484 Z M 65.371094,359.05469 41.027344,354.80078 C 30.945312,353.03906 24.199219,343.43359 25.964844,333.35156 L 44.0625,229.87891 c 1.757812,-10.08203 11.363281,-16.82813 21.445312,-15.0625 l 24.34375,4.2539 z m 0,0"
       inkscape:connector-curvature="0"
       style="fill:#e2e2e2" />
    <path
       id="path3761"
       d="m 188.01953,204.88672 c -4.10937,1.42578 -8.14062,2.98437 -12.24609,4.15234 -1.83203,0.51953 -3.08985,0.98438 -3.4961,-1.45312 -0.86328,-4.85157 -0.97656,-9.80469 -0.33593,-14.69141 0,-0.25391 0.13671,-0.49609 0.17578,-0.74219 l -67.91406,-8.19922 -36.79688,215.07032 c -0.691406,4.36328 2.285156,8.46093 6.648438,9.15234 l 138.664062,22 c 4.32812,0.6875 8.40625,-2.23828 9.14062,-6.55859 l 7.85157,-47.46485 -40.50782,-166.23047 c -0.52343,-1.64453 -0.91796,-3.32812 -1.18359,-5.03515 z m 0,0"
       inkscape:connector-curvature="0"
       style="fill:#f4c734" />
    <path
       id="path3763"
       d="m 173.20312,209.92187 71.61719,210.57422 c -6.35156,2.27735 -9.70703,9.22657 -7.53515,15.61719 2.17578,6.39063 9.07421,9.85547 15.49609,7.78125 l 163.79297,-55.71875 c 6.35156,-2.27344 9.70703,-9.22656 7.53125,-15.61719 -2.17188,-6.39062 -9.07031,-9.85156 -15.49219,-7.78125 l -7.19922,-21.08203 24.61328,-8.375 c 19.40235,-6.57812 29.78907,-27.64453 23.20313,-47.03906 L 411.42969,177.14453 c -6.59766,-19.38281 -27.65625,-29.75391 -47.03907,-23.16016 l -24.61718,8.41407 -2.78516,-8.16016 z m 239.06641,104 L 393.5,320.32031 347.73437,185.76172 366.5,179.35937 c 9.69141,-3.29687 20.21875,1.88672 23.51172,11.57813 l 33.83203,99.46094 c 3.30078,9.6914 -1.88281,20.21875 -11.57422,23.51172 z m 0,0"
       inkscape:connector-curvature="0"
       style="fill:#e2e2e2" />
    <path
       id="path3765"
       d="m 329.84375,156.625 -150.17578,51.09375 70.12109,201.64062 c 1.4375,4.14454 5.94531,6.35547 10.10547,4.96094 l 133.11719,-44.625 c 4.1914,-1.40625 6.44531,-5.9375 5.04297,-10.1289 z m 0,0"
       inkscape:connector-curvature="0"
       style="fill:#f4c734" />
    <path
       id="path3767"
       d="m 171.96484,192.89453 c 2.33985,-18.85937 18.77344,-32.75781 37.76172,-31.93359 0.72266,-1.10547 1.50391,-2.17578 2.33594,-3.19922 -0.98047,-0.32031 -1.97656,-0.58594 -2.98438,-0.80078 -8.98437,-1.11719 -18.09375,-0.57422 -26.88281,1.59765 -12.50781,-14.3789 -32.17187,-20.28125 -50.53125,-15.16797 -18.36328,5.11329 -32.144529,20.32813 -35.417966,39.10547 l 75.480466,14.77735 c 0.0547,-1.4336 0.0391,-2.92188 0.23828,-4.37891 z m 0,0"
       inkscape:connector-curvature="0"
       style="fill:#f9f2cc" />
    <path
       id="path3769"
       d="m 323.22266,16 c 0,8.835938 -7.16407,16 -16,16 -8.83985,0 -16,-7.164062 -16,-16 0,-8.835938 7.16015,-16 16,-16 8.83593,0 16,7.164062 16,16 z m 0,0"
       inkscape:connector-curvature="0"
       style="fill:#f9f2cc" />
    <path
       id="path3771"
       d="m 267.22266,72 c 0,17.671875 -14.32813,32 -32,32 -17.67579,0 -32,-14.328125 -32,-32 0,-17.671875 14.32421,-32 32,-32 17.67187,0 32,14.328125 32,32 z m 0,0"
       inkscape:connector-curvature="0"
       style="fill:#f9f2cc" />
    <path
       id="path3773"
       d="m 147.22266,80 c 0,13.253906 -10.7461,24 -24,24 -13.25782,0 -24.000004,-10.746094 -24.000004,-24 0,-13.253906 10.742184,-24 24.000004,-24 13.2539,0 24,10.746094 24,24 z m 0,0"
       inkscape:connector-curvature="0"
       style="fill:#f9f2cc" />
    <path
       id="path3775"
       d="m 91.222656,16 c 0,8.835938 -7.164062,16 -16,16 -8.839844,0 -16,-7.164062 -16,-16 0,-8.835938 7.160156,-16 16,-16 8.835938,0 16,7.164062 16,16 z m 0,0"
       inkscape:connector-curvature="0"
       style="fill:#f9f2cc" />
    <g
       id="g3789"
       style="fill:#e0b730">
      <path
         id="path3777"
         d="m 277.88672,237.50391 c -0.71094,-2.06641 -2.24219,-3.75391 -4.23438,-4.65625 -1.8789,1.71484 -4.08984,3.02343 -6.49609,3.84765 -1.39453,0.45313 -2.83594,0.7461 -4.29688,0.86328 -0.60546,1.64063 -0.64843,3.4336 -0.11718,5.09766 l 46.58984,136.94531 c 1.42578,4.17578 5.96485,6.41016 10.14453,4.99219 4.17969,-1.42578 6.41016,-5.96484 4.99219,-10.14453 z m 0,0"
         inkscape:connector-curvature="0" />
      <path
         id="path3779"
         d="m 226.79297,246.44141 c 4.17969,-1.42188 8.72265,0.8125 10.14844,4.99609 l 46.58593,136.94141 c 1.42578,4.18359 -0.8125,8.72656 -4.99218,10.14843 -4.17969,1.42188 -8.72266,-0.8164 -10.14844,-5 l -46.58594,-136.9375 c -1.42578,-4.18359 0.8125,-8.72656 4.99219,-10.14843 z m 0,0"
         inkscape:connector-curvature="0" />
      <path
         id="path3781"
         d="m 308.68359,218.57422 c 4.17969,-1.42188 8.72266,0.8125 10.14453,4.99609 l 46.58594,136.94141 c 1.42188,4.18359 -0.8125,8.72656 -4.99609,10.14844 -4.17969,1.42578 -8.72266,-0.8125 -10.14453,-4.9961 L 303.6875,228.72266 c -1.42187,-4.1836 0.81641,-8.72657 4.99609,-10.14844 z m 0,0"
         inkscape:connector-curvature="0" />
      <path
         id="path3783"
         d="M 138.70312,398 163.625,255.51562 c 0.76172,-4.35156 4.91016,-7.26562 9.26172,-6.5039 l 0.008,0.004 c 4.35156,0.76172 7.26172,4.90625 6.5,9.25782 l -24.92187,142.48437 c -0.76172,4.35156 -4.90625,7.26172 -9.26172,6.5 h -0.008 c -4.35156,-0.76172 -7.26171,-4.90625 -6.5,-9.25781 z m 0,0"
         inkscape:connector-curvature="0" />
      <path
         id="path3785"
         d="m 181.21875,405.50781 12.91406,-78.3164 c 0.71875,-4.35938 4.83203,-7.3125 9.1875,-6.59375 4.35938,0.71875 7.3086,4.83593 6.58985,9.19531 L 197,408.10937 c -0.71875,4.35938 -4.83594,7.3125 -9.19141,6.59375 -4.35547,-0.71875 -7.30859,-4.83593 -6.58984,-9.19531 z m 0,0"
         inkscape:connector-curvature="0" />
      <path
         id="path3787"
         d="M 96.097656,390.53906 121.01172,248.0625 c 0.76172,-4.35156 4.90625,-7.26563 9.25781,-6.50391 h 0.008 c 4.35547,0.76172 7.26563,4.90625 6.50391,9.26172 l -24.91406,142.47656 c -0.76172,4.35157 -4.90625,7.26172 -9.25781,6.50391 l -0.008,-0.004 c -4.355466,-0.76171 -7.265622,-4.90625 -6.503904,-9.25781 z m 0,0"
         inkscape:connector-curvature="0" />
    </g>
    <path
       id="path3791"
       d="m 222.72656,445 c -0.22656,0 -0.45312,-0.0195 -0.67187,-0.0547 L 58.558594,417.44922 c -1.050782,-0.17578 -1.984375,-0.76172 -2.597656,-1.62891 -0.617188,-0.86719 -0.863282,-1.9414 -0.683594,-2.98828 0.410156,-2.15234 2.441406,-3.59765 4.609375,-3.28125 l 163.503901,27.50391 c 2.04688,0.34765 3.49219,2.20703 3.31641,4.27734 C 226.53516,443.40625 224.80469,445 222.72656,445 Z m 0,0"
       inkscape:connector-curvature="0"
       style="fill:#cccccc" />
    <path
       id="path3793"
       d="m 249.71875,432.50391 c -1.96484,0.0117 -3.64844,-1.40625 -3.96875,-3.34375 -0.32422,-1.9375 0.80859,-3.82422 2.67187,-4.44922 l 157.50391,-54 c 2.08985,-0.71485 4.36719,0.40234 5.08203,2.49218 0.71875,2.09375 -0.39844,4.36719 -2.49219,5.08594 l -157.49609,54 c -0.41797,0.14063 -0.85937,0.21485 -1.30078,0.21485 z m 0,0"
       inkscape:connector-curvature="0"
       style="fill:#cccccc" />
    <path
       id="path3795"
       d="m 171.96484,192.89453 c -0.63672,4.88672 -0.52343,9.84375 0.33594,14.69922 0.41016,2.39844 1.66406,1.96484 3.49609,1.44531 4.4336,-1.26172 8.80079,-2.99219 13.23047,-4.5039 4.1836,-1.42188 8.73047,0.8125 10.15235,4.99218 l 5.04297,14.82422 c 2.94921,9.32813 12.41796,14.96094 22.02343,13.10547 5.11328,-1.17187 9.4961,-4.45312 12.05469,-9.03906 2.55469,-4.58203 3.05078,-10.03516 1.35938,-15.00391 l 3.64062,10.69922 c 2.94922,9.32031 12.41406,14.95313 22.01563,13.10156 5.11718,-1.16797 9.49609,-4.45312 12.05468,-9.03515 2.5586,-4.58203 3.0586,-10.03516 1.3711,-15.00391 l -9.3711,-27.52734 c -1.41796,-4.1836 0.82032,-8.72266 5,-10.14453 l 62.61719,-21.30469 c -6.1289,-18.04688 -22.09375,-30.95703 -41.02344,-33.17969 -18.92968,-2.22265 -37.44921,6.64453 -47.59375,22.78125 -15.20312,-2.94141 -30.63281,3.90625 -38.64453,17.16016 -18.92968,-0.66016 -35.26953,13.16015 -37.76172,31.93359 z m 0,0"
       inkscape:connector-curvature="0"
       style="fill:#f9f2cc" />
  </g>
</svg>
