<?xml version="1.0" encoding="UTF-8" standalone="no"?>
<svg
   xmlns:dc="http://purl.org/dc/elements/1.1/"
   xmlns:cc="http://creativecommons.org/ns#"
   xmlns:rdf="http://www.w3.org/1999/02/22-rdf-syntax-ns#"
   xmlns:svg="http://www.w3.org/2000/svg"
   xmlns="http://www.w3.org/2000/svg"
   xmlns:sodipodi="http://sodipodi.sourceforge.net/DTD/sodipodi-0.dtd"
   xmlns:inkscape="http://www.inkscape.org/namespaces/inkscape"
   height="512pt"
   viewBox="0 -43 512 512"
   width="512pt"
   version="1.1"
   id="svg78"
   sodipodi:docname="close_90degrees.svg"
   inkscape:version="0.92.3 (2405546, 2018-03-11)">
  <metadata
     id="metadata84">
    <rdf:RDF>
      <cc:Work
         rdf:about="">
        <dc:format>image/svg+xml</dc:format>
        <dc:type
           rdf:resource="http://purl.org/dc/dcmitype/StillImage" />
        <dc:title></dc:title>
      </cc:Work>
    </rdf:RDF>
  </metadata>
  <defs
     id="defs82" />
  <sodipodi:namedview
     pagecolor="#ffffff"
     bordercolor="#666666"
     borderopacity="1"
     objecttolerance="10"
     gridtolerance="10"
     guidetolerance="10"
     inkscape:pageopacity="0"
     inkscape:pageshadow="2"
     inkscape:window-width="1920"
     inkscape:window-height="1017"
     id="namedview80"
     showgrid="false"
     inkscape:zoom="1.2421875"
     inkscape:cx="341.33333"
     inkscape:cy="341.33333"
     inkscape:window-x="-8"
     inkscape:window-y="-8"
     inkscape:window-maximized="1"
     inkscape:current-layer="svg78" />
  <g
     id="g101"
     transform="rotate(-90,256,213.33594)">
    <path
       id="path48"
       d="M 406.80859,147.67187 387.96875,171.01953 258.01172,66.160156 256.21094,67.570312 123.85156,171.16016 105.35938,147.53906 256.21094,29.46875 l 2.07812,-1.628906 z m 0,0"
       inkscape:connector-curvature="0"
       style="fill:#dfcdbd" />
    <path
       id="path50"
       d="M 0,144.35156 H 512 V 426.67187 H 0 Z m 0,0"
       inkscape:connector-curvature="0"
       style="fill:#8a6744" />
    <path
       id="path52"
       d="M 406.80859,147.67187 387.96875,171.01953 258.01172,66.160156 256.21094,67.570312 V 29.46875 l 2.07812,-1.628906 z m 0,0"
       inkscape:connector-curvature="0"
       style="fill:#c8ad92" />
    <path
       id="path54"
       d="M 256.21094,144.35156 H 512 V 426.67187 H 256.21094 Z m 0,0"
       inkscape:connector-curvature="0"
       style="fill:#644b31" />
    <path
       id="path56"
       d="m 304.25,48.25 c 0,26.53125 -21.53125,48.140625 -48.03906,48.25 H 256 C 229.39844,96.5 207.75,74.851562 207.75,48.25 207.75,21.648438 229.39844,0 256,0 h 0.21094 C 282.71875,0.109375 304.25,21.71875 304.25,48.25 Z m 0,0"
       inkscape:connector-curvature="0"
       style="fill:#ffaa20" />
    <path
       id="path58"
       d="M 256.21094,96.5 V 0 C 282.71875,0.109375 304.25,21.71875 304.25,48.25 c 0,26.53125 -21.53125,48.140625 -48.03906,48.25 z m 0,0"
       inkscape:connector-curvature="0"
       style="fill:#ff8900" />
    <g
       id="g70"
       style="fill:#f0e7df">
      <path
         id="path60"
         d="m 113.25,300.21094 c -0.78906,2.07812 -1.85156,3.83984 -3.19922,5.26953 -1.33984,1.4414 -2.85937,2.60937 -4.55078,3.51953 -1.69922,0.91016 -3.46094,1.55859 -5.28125,1.94922 -1.820312,0.39062 -3.597656,0.58984 -5.339844,0.58984 -3.300781,0 -6.269531,-0.66797 -8.917968,-2.01953 -2.652344,-1.33984 -4.890626,-3.14062 -6.710938,-5.39844 -1.820312,-2.26172 -3.210938,-4.87109 -4.171875,-7.82031 -0.949219,-2.94922 -1.429687,-6.03125 -1.429687,-9.25 0,-2.85937 0.410156,-5.75 1.242187,-8.66016 0.820313,-2.91015 2.078125,-5.51171 3.769531,-7.8125 1.699219,-2.29687 3.871094,-4.16796 6.519532,-5.60937 2.640624,-1.42969 5.789062,-2.14063 9.441406,-2.14063 1.738281,0 3.539062,0.17188 5.398436,0.52344 1.8711,0.33985 3.67188,0.94922 5.41016,1.82031 1.74219,0.86719 3.32031,2.03907 4.75,3.51954 1.4414,1.48046 2.58984,3.33984 3.46094,5.59765 l 19.39843,-13.80859 c -3.21094,-6.08203 -8.08984,-10.96094 -14.64843,-14.65235 -6.5625,-3.6875 -14.3125,-5.53906 -23.250005,-5.53906 -7.46875,0 -14.109375,1.35156 -19.929687,4.03906 -5.820313,2.69141 -10.769532,6.21094 -14.851563,10.55079 -4.078125,4.33984 -7.179687,9.25 -9.308594,14.72265 -2.128906,5.46875 -3.191406,11.02735 -3.191406,16.66797 0,5.91016 1.128906,11.71875 3.390625,17.44922 2.25,5.74219 5.441406,10.85937 9.570312,15.37109 4.121094,4.51953 9.03125,8.14844 14.71875,10.87891 5.679688,2.74219 11.960938,4.10156 18.820313,4.10156 3.910156,0 7.921875,-0.46875 12.050785,-1.42969 4.12109,-0.94921 7.98828,-2.33984 11.58984,-4.17187 3.60156,-1.82031 6.82031,-4.07813 9.64063,-6.76953 2.82031,-2.6875 4.92968,-5.73047 6.32031,-9.1211 z m 0,0"
         inkscape:connector-curvature="0" />
      <path
         id="path62"
         d="m 168.33984,311.14844 v -70.33985 h -25.39843 v 92.48047 h 67.33984 v -22.14062 z m 0,0"
         inkscape:connector-curvature="0" />
      <path
         id="path64"
         d="m 303.48047,270.12109 c -2.21875,-5.64062 -5.35938,-10.67968 -9.44141,-15.10937 -4.08984,-4.43359 -8.98828,-7.99219 -14.71875,-10.68359 -5.73047,-2.6875 -12.12109,-4.03907 -19.14844,-4.03907 -1.34375,0 -2.66015,0.0508 -3.96093,0.14063 -5.35157,0.41015 -10.35157,1.64062 -14.99219,3.69922 -5.77734,2.57031 -10.76953,6 -14.98047,10.29297 -4.20703,4.29687 -7.48828,9.26953 -9.82812,14.91796 -2.35157,5.64063 -3.51954,11.51172 -3.51954,17.58203 0,5.98829 1.12891,11.8086 3.37891,17.45704 2.26172,5.64062 5.42969,10.66015 9.51172,15.04296 4.07812,4.38672 8.98828,7.91797 14.71875,10.61719 4.78125,2.24219 10.01953,3.55078 15.71094,3.92188 1.1289,0.0703 2.27734,0.10937 3.4375,0.10937 6.86328,0 13.17968,-1.30078 18.95312,-3.89844 5.77735,-2.61328 10.75,-6.0625 14.91016,-10.36328 4.16797,-4.29687 7.42969,-9.25 9.76953,-14.84765 2.34766,-5.60157 3.51953,-11.44141 3.51953,-17.51953 0,-5.90235 -1.10937,-11.67188 -3.32031,-17.32032 z m -23.71094,25.78907 c -0.82031,2.94922 -2.07812,5.57812 -3.76953,7.8789 -1.69922,2.30078 -3.89062,4.17188 -6.57812,5.60156 -2.69141,1.42969 -5.86329,2.14844 -9.51172,2.14844 -1.30078,0 -2.53125,-0.0898 -3.69922,-0.26953 -2.1211,-0.30859 -4.03906,-0.91015 -5.74219,-1.80859 -2.64844,-1.39063 -4.84766,-3.22266 -6.57812,-5.47266 -1.74219,-2.25781 -3.03907,-4.83984 -3.91016,-7.75 -0.87109,-2.91015 -1.30078,-5.92969 -1.30078,-9.05859 0,-3.03906 0.41015,-6.00781 1.24219,-8.91797 0.8164,-2.91016 2.09765,-5.51172 3.83984,-7.8125 1.72656,-2.30078 3.92969,-4.14844 6.57812,-5.53906 1.73829,-0.91016 3.69141,-1.53125 5.8711,-1.83203 1.1289,-0.16797 2.32031,-0.25 3.57031,-0.25 3.55859,0 6.66016,0.67187 9.30859,2.01171 2.64844,1.35157 4.8711,3.12891 6.64844,5.33985 1.77344,2.21875 3.10156,4.78125 3.97266,7.6914 0.86719,2.91016 1.30078,5.92969 1.30078,9.05079 0,3.03906 -0.41016,6.03906 -1.24219,8.98828 z m 0,0"
         inkscape:connector-curvature="0" />
      <path
         id="path66"
         d="m 384.03906,293.96094 c -1.30078,-3.03907 -3.16797,-5.63282 -5.59765,-7.75 -2.42969,-2.13282 -5.36328,-3.98047 -8.79297,-5.53907 -3.42969,-1.5625 -7.27735,-3 -11.52735,-4.30078 -2.6914,-0.87109 -5.10156,-1.60156 -7.23046,-2.21093 -2.12891,-0.60938 -3.92969,-1.23828 -5.40235,-1.89063 -1.47656,-0.64844 -2.60937,-1.37109 -3.38672,-2.14844 -0.78125,-0.78125 -1.17187,-1.78125 -1.17187,-3 0,-1.64062 0.67187,-2.82031 2.01953,-3.51172 1.33984,-0.69921 3.14062,-1.03906 5.40234,-1.03906 2.77735,0 5.61719,0.44922 8.52735,1.35938 2.91015,0.91015 5.54296,1.89062 7.88281,2.92968 2.77734,1.21875 5.46875,2.60938 8.07812,4.17188 l 10.94141,-20.97266 c -2.08203,-1.03906 -4.42969,-2.14843 -7.03125,-3.32031 -2.60938,-1.16797 -5.41016,-2.25781 -8.41016,-3.25781 -2.98828,-0.99219 -6.10156,-1.82031 -9.30859,-2.46875 -3.21094,-0.65235 -6.51172,-0.98047 -9.90234,-0.98047 -4.59766,0 -8.95704,0.67969 -13.08985,2.01953 -4.11719,1.34766 -7.78906,3.32031 -11,5.92969 -3.21875,2.59765 -5.75781,5.85937 -7.61719,9.76953 -1.87109,3.89844 -2.80078,8.42187 -2.80078,13.53906 0,3.39063 0.44922,6.38281 1.35938,8.99219 0.91797,2.59766 2.32812,4.92969 4.23828,6.96875 1.91016,2.03906 4.33984,3.85937 7.29297,5.46875 2.94922,1.60937 6.46875,3.10156 10.54687,4.49219 2.78125,0.96093 5.41016,1.77734 7.88282,2.48047 2.48046,0.6875 4.66796,1.38671 6.57812,2.07812 1.91016,0.69922 3.41016,1.5 4.49219,2.41016 1.08984,0.91015 1.6289,2.01953 1.6289,3.32031 0,1.21875 -0.53906,2.19922 -1.6289,2.92969 -1.08203,0.74218 -3.01172,1.10937 -5.79297,1.10937 -3.64844,0 -7.23047,-0.51953 -10.75,-1.55859 -3.51953,-1.05078 -6.66016,-2.21875 -9.4375,-3.51953 -3.30078,-1.48047 -6.47266,-3.17188 -9.51172,-5.08203 l -10.94141,22.26953 c 2.78125,1.65234 5.79297,3.13281 9.05079,4.42969 3.26171,1.30078 6.64062,2.43359 10.16015,3.39062 3.51953,0.95313 7.05078,1.69141 10.6211,2.21094 3.55078,0.51953 7.03125,0.78125 10.41796,0.78125 4.25,0 8.48047,-0.5 12.70313,-1.49219 4.20703,-1 7.98047,-2.62891 11.32812,-4.89062 3.33985,-2.25 6.03125,-5.26954 8.07032,-9.04688 2.03906,-3.78125 3.05859,-8.45312 3.05859,-14 0,-4.33984 -0.64844,-8.03125 -1.94922,-11.07031 z m 0,0"
         inkscape:connector-curvature="0" />
      <path
         id="path68"
         d="m 422.58984,311.14844 v -14.58985 h 33.60938 v -20.57812 h -33.60938 v -13.01953 h 39.33985 v -22.15235 h -64.73828 v 92.48047 h 65.91015 v -22.14062 z m 0,0"
         inkscape:connector-curvature="0" />
    </g>
    <path
       id="path72"
       d="m 306.80078,287.44141 c 0,6.07812 -1.17187,11.91796 -3.51953,17.51953 -2.33984,5.59765 -5.60156,10.55078 -9.76953,14.84765 -4.16016,4.30078 -9.13281,7.75 -14.91016,10.36328 -5.77344,2.59766 -12.08984,3.89844 -18.95312,3.89844 -1.16016,0 -2.3086,-0.0391 -3.4375,-0.10937 v -22.69141 c 1.16797,0.17969 2.39843,0.26953 3.69922,0.26953 3.64843,0 6.82031,-0.71875 9.51171,-2.14844 2.6875,-1.42968 4.87891,-3.30078 6.57813,-5.60156 1.69141,-2.30078 2.94922,-4.92969 3.76953,-7.8789 0.83203,-2.94922 1.24219,-5.94922 1.24219,-8.98829 0,-3.12109 -0.4336,-6.14062 -1.30078,-9.05078 -0.8711,-2.91015 -2.19922,-5.47265 -3.97266,-7.6914 -1.77734,-2.21094 -4,-3.98828 -6.64844,-5.33985 -2.64843,-1.33984 -5.75,-2.01172 -9.30859,-2.01172 -1.25,0 -2.44141,0.082 -3.57031,0.25 v -22.64843 c 1.30078,-0.0898 2.61718,-0.14063 3.96093,-0.14063 7.02735,0 13.41797,1.35156 19.14844,4.03906 5.73047,2.69141 10.62891,6.25 14.71875,10.6836 4.08203,4.42969 7.22266,9.46875 9.44141,15.10937 2.21094,5.64844 3.32031,11.41797 3.32031,17.32032 z m 0,0"
       inkscape:connector-curvature="0"
       style="fill:#dfcdbd" />
    <path
       id="path74"
       d="m 384.03906,293.96094 c 1.30078,3.03906 1.94922,6.73047 1.94922,11.07031 0,5.54687 -1.01953,10.21875 -3.05859,14 -2.03906,3.77734 -4.73047,6.79687 -8.07031,9.04687 -3.34766,2.26172 -7.1211,3.89063 -11.32813,4.89063 -4.22266,0.99219 -8.45312,1.49219 -12.70312,1.49219 -3.38672,0 -6.86719,-0.26172 -10.41797,-0.78125 -3.57032,-0.51953 -7.10157,-1.25782 -10.6211,-2.21094 -3.51953,-0.95703 -6.89843,-2.08984 -10.16015,-3.39063 -3.25782,-1.29687 -6.26953,-2.77734 -9.05079,-4.42968 l 10.94141,-22.26953 c 3.03906,1.91015 6.21094,3.60156 9.51172,5.08203 2.77734,1.30078 5.91797,2.46875 9.4375,3.51953 3.51953,1.03906 7.10156,1.55859 10.75,1.55859 2.78125,0 4.71094,-0.36719 5.79297,-1.10937 1.08984,-0.73047 1.6289,-1.71094 1.6289,-2.92969 0,-1.30078 -0.53906,-2.41016 -1.6289,-3.32031 -1.08203,-0.91016 -2.58203,-1.71094 -4.49219,-2.41016 -1.91015,-0.69141 -4.09765,-1.39062 -6.57812,-2.07812 -2.47266,-0.70313 -5.10157,-1.51954 -7.88282,-2.48047 -4.07812,-1.39063 -7.59765,-2.88282 -10.54687,-4.49219 -2.95313,-1.60938 -5.38281,-3.42969 -7.29297,-5.46875 -1.91016,-2.03906 -3.32031,-4.37109 -4.23828,-6.96875 -0.91016,-2.60938 -1.35938,-5.60156 -1.35938,-8.99219 0,-5.11719 0.92969,-9.64062 2.80078,-13.53906 1.85938,-3.91016 4.39844,-7.17188 7.61719,-9.76953 3.21094,-2.60938 6.88281,-4.58203 11,-5.92969 4.13281,-1.33984 8.49219,-2.01953 13.08985,-2.01953 3.39062,0 6.6914,0.32812 9.90234,0.98047 3.20703,0.64844 6.32031,1.47656 9.30859,2.46875 3,1 5.80078,2.08984 8.41016,3.25781 2.60156,1.17188 4.94922,2.28125 7.03125,3.32031 l -10.94141,20.97266 c -2.60937,-1.5625 -5.30078,-2.95313 -8.07812,-4.17188 -2.33985,-1.03906 -4.97266,-2.01953 -7.88281,-2.92968 -2.91016,-0.91016 -5.75,-1.35938 -8.52735,-1.35938 -2.26172,0 -4.0625,0.33985 -5.40234,1.03906 -1.34766,0.69141 -2.01953,1.8711 -2.01953,3.51172 0,1.21875 0.39062,2.21875 1.17187,3 0.77735,0.77735 1.91016,1.5 3.38672,2.14844 1.47266,0.65234 3.27344,1.28125 5.40235,1.89063 2.1289,0.60937 4.53906,1.33984 7.23046,2.21093 4.25,1.30078 8.09766,2.73828 11.52735,4.30078 3.42969,1.5586 6.36328,3.40625 8.79297,5.53907 2.42968,2.11718 4.29687,4.71093 5.59765,7.75 z m 0,0"
       inkscape:connector-curvature="0"
       style="fill:#dfcdbd" />
    <path
       id="path76"
       d="m 463.10156,311.14844 v 22.14062 h -65.91015 v -92.48047 h 64.73828 v 22.15235 h -39.33985 v 13.01953 h 33.60938 v 20.57812 h -33.60938 v 14.58985 z m 0,0"
       inkscape:connector-curvature="0"
       style="fill:#dfcdbd" />
  </g>
</svg>
