<svg height="512pt" viewBox="0 -43 512 512" width="512pt" xmlns="http://www.w3.org/2000/svg"><path d="m406.808594 147.671875-18.839844 23.347656-129.957031-104.859375-1.800781 1.410156-132.359376 103.589844-18.492187-23.621094 150.851563-118.070312 2.078124-1.628906zm0 0" fill="#dfcdbd"/><path d="m0 144.351562h512v282.320313h-512zm0 0" fill="#8a6744"/><path d="m406.808594 147.671875-18.839844 23.347656-129.957031-104.859375-1.800781 1.410156v-38.101562l2.078124-1.628906zm0 0" fill="#c8ad92"/><path d="m256.210938 144.351562h255.789062v282.320313h-255.789062zm0 0" fill="#644b31"/><path d="m304.25 48.25c0 26.53125-21.53125 48.140625-48.039062 48.25h-.210938c-26.601562 0-48.25-21.648438-48.25-48.25s21.648438-48.25 48.25-48.25h.210938c26.507812.109375 48.039062 21.71875 48.039062 48.25zm0 0" fill="#ffaa20"/><path d="m256.210938 96.5v-96.5c26.507812.109375 48.039062 21.71875 48.039062 48.25s-21.53125 48.140625-48.039062 48.25zm0 0" fill="#ff8900"/><g fill="#f0e7df"><path d="m113.25 300.210938c-.789062 2.078124-1.851562 3.839843-3.199219 5.269531-1.339843 1.441406-2.859375 2.609375-4.550781 3.519531-1.699219.910156-3.460938 1.558594-5.28125 1.949219s-3.597656.589843-5.339844.589843c-3.300781 0-6.269531-.667968-8.917968-2.019531-2.652344-1.339843-4.890626-3.140625-6.710938-5.398437-1.820312-2.261719-3.210938-4.871094-4.171875-7.820313-.949219-2.949219-1.429687-6.03125-1.429687-9.25 0-2.859375.410156-5.75 1.242187-8.660156.820313-2.910156 2.078125-5.511719 3.769531-7.8125 1.699219-2.296875 3.871094-4.167969 6.519532-5.609375 2.640624-1.429688 5.789062-2.140625 9.441406-2.140625 1.738281 0 3.539062.171875 5.398437.523437 1.871094.339844 3.671875.949219 5.410157 1.820313 1.742187.867187 3.320312 2.039063 4.75 3.519531 1.441406 1.480469 2.589843 3.339844 3.460937 5.597656l19.398437-13.808593c-3.210937-6.082031-8.089843-10.960938-14.648437-14.652344-6.5625-3.6875-14.3125-5.539063-23.25-5.539063-7.46875 0-14.109375 1.351563-19.929687 4.039063-5.820313 2.691406-10.769532 6.210937-14.851563 10.550781-4.078125 4.339844-7.179687 9.25-9.308594 14.722656-2.128906 5.46875-3.191406 11.027344-3.191406 16.667969 0 5.910157 1.128906 11.71875 3.390625 17.449219 2.25 5.742188 5.441406 10.859375 9.570312 15.371094 4.121094 4.519531 9.03125 8.148437 14.71875 10.878906 5.679688 2.742188 11.960938 4.101562 18.820313 4.101562 3.910156 0 7.921875-.46875 12.050781-1.429687 4.121094-.949219 7.988282-2.339844 11.589844-4.171875 3.601562-1.820312 6.820312-4.078125 9.640625-6.769531 2.820313-2.6875 4.929687-5.730469 6.320313-9.121094zm0 0"/><path d="m168.339844 311.148438v-70.339844h-25.398438v92.480468h67.339844v-22.140624zm0 0"/><path d="m303.480469 270.121094c-2.21875-5.640625-5.359375-10.679688-9.441407-15.109375-4.089843-4.433594-8.988281-7.992188-14.71875-10.683594-5.730468-2.6875-12.121093-4.039063-19.148437-4.039063-1.34375 0-2.660156.050782-3.960937.140626-5.351563.410156-10.351563 1.640624-14.992188 3.699218-5.777344 2.570313-10.769531 6-14.980469 10.292969-4.207031 4.296875-7.488281 9.269531-9.828125 14.917969-2.351562 5.640625-3.519531 11.511718-3.519531 17.582031 0 5.988281 1.128906 11.808594 3.378906 17.457031 2.261719 5.640625 5.429688 10.660156 9.511719 15.042969 4.078125 4.386719 8.988281 7.917969 14.71875 10.617187 4.78125 2.242188 10.019531 3.550782 15.710938 3.921876 1.128906.070312 2.277343.109374 3.4375.109374 6.863281 0 13.179687-1.300781 18.953124-3.898437 5.777344-2.613281 10.75-6.0625 14.910157-10.363281 4.167969-4.296875 7.429687-9.25 9.769531-14.847656 2.347656-5.601563 3.519531-11.441407 3.519531-17.519532 0-5.902344-1.109375-11.671875-3.320312-17.320312zm-23.710938 25.789062c-.820312 2.949219-2.078125 5.578125-3.769531 7.878906-1.699219 2.300782-3.890625 4.171876-6.578125 5.601563-2.691406 1.429687-5.863281 2.148437-9.511719 2.148437-1.300781 0-2.53125-.089843-3.699218-.269531-2.121094-.308593-4.039063-.910156-5.742188-1.808593-2.648438-1.390626-4.847656-3.222657-6.578125-5.472657-1.742187-2.257812-3.039063-4.839843-3.910156-7.75-.871094-2.910156-1.300781-5.929687-1.300781-9.058593 0-3.039063.410156-6.007813 1.242187-8.917969.816406-2.910157 2.097656-5.511719 3.839844-7.8125 1.726562-2.300781 3.929687-4.148438 6.578125-5.539063 1.738281-.910156 3.691406-1.53125 5.871094-1.832031 1.128906-.167969 2.320312-.25 3.570312-.25 3.558594 0 6.660156.671875 9.308594 2.011719 2.648437 1.351562 4.871094 3.128906 6.648437 5.339844 1.773438 2.21875 3.101563 4.78125 3.972657 7.691406.867187 2.910156 1.300781 5.929687 1.300781 9.050781 0 3.039063-.410157 6.039063-1.242188 8.988281zm0 0"/><path d="m384.039062 293.960938c-1.300781-3.039063-3.167968-5.632813-5.597656-7.75-2.429687-2.132813-5.363281-3.980469-8.792968-5.539063-3.429688-1.5625-7.277344-3-11.527344-4.300781-2.691406-.871094-5.101563-1.601563-7.230469-2.210938s-3.929687-1.238281-5.402344-1.890625c-1.476562-.648437-2.609375-1.371093-3.386719-2.148437-.78125-.78125-1.171874-1.78125-1.171874-3 0-1.640625.671874-2.820313 2.019531-3.511719 1.339843-.699219 3.140625-1.039063 5.402343-1.039063 2.777344 0 5.617188.449219 8.527344 1.359376 2.910156.910156 5.542969 1.890624 7.882813 2.929687 2.777343 1.21875 5.46875 2.609375 8.078125 4.171875l10.941406-20.972656c-2.082031-1.039063-4.429688-2.148438-7.03125-3.320313-2.609375-1.167969-5.410156-2.257812-8.410156-3.257812-2.988282-.992188-6.101563-1.820313-9.308594-2.46875-3.210938-.652344-6.511719-.980469-9.902344-.980469-4.597656 0-8.957031.679688-13.089844 2.019531-4.117187 1.347657-7.789062 3.320313-11 5.929688-3.21875 2.597656-5.757812 5.859375-7.617187 9.769531-1.871094 3.898438-2.800781 8.421875-2.800781 13.539062 0 3.390626.449218 6.382813 1.359375 8.992188.917969 2.597656 2.328125 4.929688 4.238281 6.96875s4.339844 3.859375 7.292969 5.46875c2.949219 1.609375 6.46875 3.101562 10.546875 4.492188 2.78125.960937 5.410156 1.777343 7.882812 2.480468 2.480469.6875 4.667969 1.386719 6.578125 2.078125 1.910157.699219 3.410157 1.5 4.492188 2.410157 1.089843.910156 1.628906 2.019531 1.628906 3.320312 0 1.21875-.539063 2.199219-1.628906 2.929688-1.082031.742187-3.011719 1.109374-5.792969 1.109374-3.648438 0-7.230469-.519531-10.75-1.558593-3.519531-1.050781-6.660156-2.21875-9.4375-3.519531-3.300781-1.480469-6.472656-3.171876-9.511719-5.082032l-10.941406 22.269532c2.78125 1.652343 5.792969 3.132812 9.050781 4.429687 3.261719 1.300781 6.640625 2.433594 10.160156 3.390625 3.519532.953125 7.050782 1.691406 10.621094 2.210938 3.550782.519531 7.03125.78125 10.417969.78125 4.25 0 8.480469-.5 12.703125-1.492188 4.207031-1 7.980469-2.628906 11.328125-4.890625 3.339844-2.25 6.03125-5.269531 8.070313-9.046875 2.039062-3.78125 3.058593-8.453125 3.058593-14 0-4.339844-.648437-8.03125-1.949219-11.070312zm0 0"/><path d="m422.589844 311.148438v-14.589844h33.609375v-20.578125h-33.609375v-13.019531h39.339844v-22.152344h-64.738282v92.480468h65.910156v-22.140624zm0 0"/></g><path d="m306.800781 287.441406c0 6.078125-1.171875 11.917969-3.519531 17.519532-2.339844 5.597656-5.601562 10.550781-9.769531 14.847656-4.160157 4.300781-9.132813 7.75-14.910157 10.363281-5.773437 2.597656-12.089843 3.898437-18.953124 3.898437-1.160157 0-2.308594-.039062-3.4375-.109374v-22.691407c1.167968.179688 2.398437.269531 3.699218.269531 3.648438 0 6.820313-.71875 9.511719-2.148437 2.6875-1.429687 4.878906-3.300781 6.578125-5.601563 1.691406-2.300781 2.949219-4.929687 3.769531-7.878906.832031-2.949218 1.242188-5.949218 1.242188-8.988281 0-3.121094-.433594-6.140625-1.300781-9.050781-.871094-2.910156-2.199219-5.472656-3.972657-7.691406-1.777343-2.210938-4-3.988282-6.648437-5.339844-2.648438-1.339844-5.75-2.011719-9.308594-2.011719-1.25 0-2.441406.082031-3.570312.25v-22.648437c1.300781-.089844 2.617187-.140626 3.960937-.140626 7.027344 0 13.417969 1.351563 19.148437 4.039063 5.730469 2.691406 10.628907 6.25 14.71875 10.683594 4.082032 4.429687 7.222657 9.46875 9.441407 15.109375 2.210937 5.648437 3.320312 11.417968 3.320312 17.320312zm0 0" fill="#dfcdbd"/><path d="m384.039062 293.960938c1.300782 3.039062 1.949219 6.730468 1.949219 11.070312 0 5.546875-1.019531 10.21875-3.058593 14-2.039063 3.777344-4.730469 6.796875-8.070313 9.046875-3.347656 2.261719-7.121094 3.890625-11.328125 4.890625-4.222656.992188-8.453125 1.492188-12.703125 1.492188-3.386719 0-6.867187-.261719-10.417969-.78125-3.570312-.519532-7.101562-1.257813-10.621094-2.210938-3.519531-.957031-6.898437-2.089844-10.160156-3.390625-3.257812-1.296875-6.269531-2.777344-9.050781-4.429687l10.941406-22.269532c3.039063 1.910156 6.210938 3.601563 9.511719 5.082032 2.777344 1.300781 5.917969 2.46875 9.4375 3.519531 3.519531 1.039062 7.101562 1.558593 10.75 1.558593 2.78125 0 4.710938-.367187 5.792969-1.109374 1.089843-.730469 1.628906-1.710938 1.628906-2.929688 0-1.300781-.539063-2.410156-1.628906-3.320312-1.082031-.910157-2.582031-1.710938-4.492188-2.410157-1.910156-.691406-4.097656-1.390625-6.578125-2.078125-2.472656-.703125-5.101562-1.519531-7.882812-2.480468-4.078125-1.390626-7.597656-2.882813-10.546875-4.492188-2.953125-1.609375-5.382813-3.429688-7.292969-5.46875s-3.320312-4.371094-4.238281-6.96875c-.910157-2.609375-1.359375-5.601562-1.359375-8.992188 0-5.117187.929687-9.640624 2.800781-13.539062 1.859375-3.910156 4.398437-7.171875 7.617187-9.769531 3.210938-2.609375 6.882813-4.582031 11-5.929688 4.132813-1.339843 8.492188-2.019531 13.089844-2.019531 3.390625 0 6.691406.328125 9.902344.980469 3.207031.648437 6.320312 1.476562 9.308594 2.46875 3 1 5.800781 2.089843 8.410156 3.257812 2.601562 1.171875 4.949219 2.28125 7.03125 3.320313l-10.941406 20.972656c-2.609375-1.5625-5.300782-2.953125-8.078125-4.171875-2.339844-1.039063-4.972657-2.019531-7.882813-2.929687-2.910156-.910157-5.75-1.359376-8.527344-1.359376-2.261718 0-4.0625.339844-5.402343 1.039063-1.347657.691406-2.019531 1.871094-2.019531 3.511719 0 1.21875.390624 2.21875 1.171874 3 .777344.777344 1.910157 1.5 3.386719 2.148437 1.472657.652344 3.273438 1.28125 5.402344 1.890625s4.539063 1.339844 7.230469 2.210938c4.25 1.300781 8.097656 2.738281 11.527344 4.300781 3.429687 1.558594 6.363281 3.40625 8.792968 5.539063 2.429688 2.117187 4.296875 4.710937 5.597656 7.75zm0 0" fill="#dfcdbd"/><path d="m463.101562 311.148438v22.140624h-65.910156v-92.480468h64.738282v22.152344h-39.339844v13.019531h33.609375v20.578125h-33.609375v14.589844zm0 0" fill="#dfcdbd"/></svg>