<?xml version="1.0" encoding="UTF-8" standalone="no"?>
<!-- Generator: Adobe Illustrator 19.0.0, SVG Export Plug-In . SVG Version: 6.00 Build 0)  -->

<svg
   xmlns:dc="http://purl.org/dc/elements/1.1/"
   xmlns:cc="http://creativecommons.org/ns#"
   xmlns:rdf="http://www.w3.org/1999/02/22-rdf-syntax-ns#"
   xmlns:svg="http://www.w3.org/2000/svg"
   xmlns="http://www.w3.org/2000/svg"
   xmlns:sodipodi="http://sodipodi.sourceforge.net/DTD/sodipodi-0.dtd"
   xmlns:inkscape="http://www.inkscape.org/namespaces/inkscape"
   version="1.1"
   id="Capa_1"
   x="0px"
   y="0px"
   viewBox="0 0 512 512"
   style="enable-background:new 0 0 512 512;"
   xml:space="preserve"
   sodipodi:docname="policeman_90degrees.svg"
   inkscape:version="0.92.3 (2405546, 2018-03-11)"><metadata
   id="metadata186"><rdf:RDF><cc:Work
       rdf:about=""><dc:format>image/svg+xml</dc:format><dc:type
         rdf:resource="http://purl.org/dc/dcmitype/StillImage" /><dc:title></dc:title></cc:Work></rdf:RDF></metadata><defs
   id="defs184" /><sodipodi:namedview
   pagecolor="#ffffff"
   bordercolor="#666666"
   borderopacity="1"
   objecttolerance="10"
   gridtolerance="10"
   guidetolerance="10"
   inkscape:pageopacity="0"
   inkscape:pageshadow="2"
   inkscape:window-width="1920"
   inkscape:window-height="1017"
   id="namedview182"
   showgrid="false"
   inkscape:zoom="1.65625"
   inkscape:cx="256"
   inkscape:cy="256"
   inkscape:window-x="-8"
   inkscape:window-y="-8"
   inkscape:window-maximized="1"
   inkscape:current-layer="Capa_1" />































<g
   id="g229"
   transform="rotate(-90,256,256)"><path
     id="path99"
     d="m 288.411,374.129 49.481,-46.475 -19.645,-3.649 C 308.765,322.099 301.944,311.1 301.944,301.429 V 258.33 H 256 v 0 h -45.943 v 43.099 c 0,9.672 -6.822,20.671 -16.303,22.576 l -19.645,3.649 49.481,46.475 c 18.218,17.113 46.602,17.113 64.821,0 z"
     style="fill:#ffe7cf"
     inkscape:connector-curvature="0" /><path
     id="path101"
     d="m 259.778,258.33 v 61.221 c 0,9.671 6.822,20.671 16.303,22.576 l 38.75,7.187 23.061,-21.66 -19.645,-3.649 C 308.765,322.099 301.944,311.1 301.944,301.429 V 258.33 Z"
     style="fill:#f4d3a6"
     inkscape:connector-curvature="0" /><path
     id="path103"
     d="M 249.789,473.08 Z"
     style="fill:#ededed"
     inkscape:connector-curvature="0" /><path
     id="path105"
     d="m 392.114,331.708 -69.846,-12.974 c -2.563,-0.476 -5.209,0.141 -7.297,1.702 L 256,364.512 197.029,320.435 c -2.088,-1.561 -4.734,-2.178 -7.297,-1.702 l -69.846,12.974 c -35.135,10.345 -59.259,42.596 -59.259,79.222 v 83.719 c 0,9.583 7.768,17.351 17.351,17.351 h 356.043 c 9.583,0 17.351,-7.768 17.351,-17.351 V 410.93 c 10e-4,-36.626 -24.123,-68.877 -59.258,-79.222 z"
     style="fill:#2d5872"
     inkscape:connector-curvature="0" /><g
     id="g113">
	<path
   id="path107"
   d="m 392.114,331.708 -69.846,-12.974 c -2.563,-0.476 -5.209,0.141 -7.297,1.702 l -30.969,23.148 66.469,12.347 c 35.135,10.345 59.258,20.049 59.258,56.676 V 512 h 24.293 c 9.583,0 17.351,-7.768 17.351,-17.351 V 410.93 c 0,-36.626 -24.124,-68.877 -59.259,-79.222 z"
   style="fill:#1d4559"
   inkscape:connector-curvature="0" />
	<path
   id="path109"
   d="m 169.691,322.456 38.226,53.49 c 2.88,4.03 8.172,5.519 12.731,3.583 L 256,364.512 197.029,320.435 c -2.088,-1.561 -4.734,-2.178 -7.297,-1.702 z"
   style="fill:#1d4559"
   inkscape:connector-curvature="0" />
	<path
   id="path111"
   d="m 342.309,322.456 -38.226,53.49 c -2.88,4.03 -8.172,5.519 -12.731,3.583 L 256,364.512 314.971,320.435 c 2.088,-1.561 4.734,-2.178 7.297,-1.702 z"
   style="fill:#1d4559"
   inkscape:connector-curvature="0" />
</g><path
     id="path115"
     d="m 256,0 c -74.11,0 -134.188,51.27 -134.188,80.241 0,28.971 60.078,49.674 134.188,49.674 74.11,0 134.188,-20.703 134.188,-49.674 C 390.188,51.27 330.11,0 256,0 Z"
     style="fill:#2d5872"
     inkscape:connector-curvature="0" /><path
     id="path117"
     d="m 256,0 c -7.201,0 -14.268,0.49 -21.162,1.39 64.054,8.368 113.026,52.695 113.026,78.851 0,26.156 -48.972,45.57 -113.026,49.096 6.894,0.379 13.961,0.577 21.162,0.577 74.11,0 134.188,-20.703 134.188,-49.674 C 390.188,51.269 330.11,0 256,0 Z"
     style="fill:#1d4559"
     inkscape:connector-curvature="0" /><path
     id="path119"
     d="m 351.949,161.121 h -6.124 v -7.192 -17.19 c 0,-24.272 -9.965,-47.792 -28.358,-63.629 -14.42,-12.417 -108.514,-12.417 -122.935,0 -18.393,15.837 -28.358,39.357 -28.358,63.629 v 17.19 7.192 h -6.124 c -8.979,0 -16.257,7.279 -16.257,16.257 v 18.016 c 0,8.979 7.279,16.257 16.257,16.257 h 6.149 c 0.507,23.594 10.421,46.304 28.333,61.727 14.421,12.417 34.691,23.255 61.467,23.553 26.777,-0.299 47.047,-11.137 61.467,-23.553 17.912,-15.423 27.827,-38.133 28.333,-61.727 h 6.149 c 8.979,0 16.257,-7.279 16.257,-16.257 v -18.016 c 0.002,-8.978 -7.277,-16.257 -16.256,-16.257 z"
     style="fill:#ffe7cf"
     inkscape:connector-curvature="0" /><path
     id="path121"
     d="m 351.949,161.121 h -6.124 v -7.192 -17.191 c 0,-24.272 -9.965,-47.792 -28.358,-63.629 -9.078,-7.817 -49.732,-10.711 -82.207,-8.685 19.108,1.192 35.386,4.086 40.728,8.685 18.393,15.837 28.358,39.357 28.358,63.629 v 17.191 l -0.024,57.721 c -0.507,23.594 -10.421,46.304 -28.333,61.727 -10.431,8.982 -23.926,17.135 -40.728,21.073 6.425,1.506 13.332,2.398 20.739,2.481 26.777,-0.299 47.047,-11.137 61.467,-23.554 17.912,-15.423 27.827,-38.133 28.333,-61.727 h 6.149 c 8.979,0 16.257,-7.279 16.257,-16.257 v -18.016 c 10e-4,-8.977 -7.278,-16.256 -16.257,-16.256 z"
     style="fill:#f4d3a6"
     inkscape:connector-curvature="0" /><path
     id="path123"
     d="m 152.554,106.979 v 55.973 c 0,0 13.74,-0.311 22.569,8.427 1.839,1.82 4.964,0.49 4.964,-2.097 v -41.451 h 151.826 v 41.451 c 0,2.587 3.125,3.917 4.964,2.097 8.829,-8.738 22.569,-8.427 22.569,-8.427 v -55.973 c 0,-34.668 -206.892,-34.668 -206.892,0 z"
     style="fill:#ff6d3a"
     inkscape:connector-curvature="0" /><path
     id="path125"
     d="m 256,152.579 c -57.132,0 -103.446,-17.733 -103.446,-39.608 h 206.892 c 0,21.875 -46.314,39.608 -103.446,39.608 z"
     style="fill:#2d5872"
     inkscape:connector-curvature="0" /><path
     id="path127"
     d="m 152.554,85.475 v 27.497 H 359.446 V 85.763 c 0,-7.38 -5,-13.815 -12.151,-15.642 -19.144,-4.892 -58.078,-13.453 -96.137,-13.469 -35.075,-0.014 -69.409,8.386 -86.825,13.28 -6.968,1.959 -11.779,8.306 -11.779,15.543 z"
     style="fill:#1d4559"
     inkscape:connector-curvature="0" /><g
     id="g133">
	<polygon
   id="polygon129"
   points="256,364.512 228.199,376.321 244.452,395.214 267.548,395.214 283.801,376.321 "
   style="fill:#282c3a" />
	<polygon
   id="polygon131"
   points="267.548,395.214 256,395.214 244.452,395.214 228.199,512 283.801,512 "
   style="fill:#282c3a" />
</g><g
     id="g139">
	<path
   id="path135"
   d="m 361.499,473.08 h -40.702 c -2.704,0 -4.897,-2.192 -4.897,-4.897 v -21.684 c 0,-2.704 2.192,-4.897 4.897,-4.897 h 40.702 c 2.704,0 4.897,2.192 4.897,4.897 v 21.684 c 0,2.704 -2.192,4.897 -4.897,4.897 z"
   style="fill:#1d4559"
   inkscape:connector-curvature="0" />
	<path
   id="path137"
   d="m 191.203,473.08 h -40.702 c -2.704,0 -4.897,-2.192 -4.897,-4.897 v -21.684 c 0,-2.704 2.192,-4.897 4.897,-4.897 h 40.702 c 2.704,0 4.897,2.192 4.897,4.897 v 21.684 c 0,2.704 -2.193,4.897 -4.897,4.897 z"
   style="fill:#1d4559"
   inkscape:connector-curvature="0" />
</g><path
     id="path141"
     d="m 76.334,382.883 c 7.632,6.154 18.808,4.955 24.962,-2.677 l 8.411,-10.432 c 6.154,-7.633 4.955,-18.808 -2.677,-24.962 L 101,339.95 c -14.435,8.583 -25.82,21.339 -32.772,36.397 z"
     style="fill:#ffbf14"
     inkscape:connector-curvature="0" /><path
     id="path143"
     d="M 443.772,376.347 C 436.821,361.289 425.436,348.533 411,339.95 l -6.031,4.862 c -7.632,6.154 -8.831,17.33 -2.677,24.962 l 8.411,10.432 c 6.154,7.632 17.33,8.831 24.962,2.677 z"
     style="fill:#eaa200"
     inkscape:connector-curvature="0" /><g
     id="g149">
	<path
   id="path145"
   d="m 395.379,433.872 c -4.269,0 -7.729,3.46 -7.729,7.729 V 512 h 15.458 v -70.399 c -10e-4,-4.269 -3.461,-7.729 -7.729,-7.729 z"
   style="fill:#183d4c"
   inkscape:connector-curvature="0" />
	<path
   id="path147"
   d="m 116.621,433.872 c -4.269,0 -7.729,3.46 -7.729,7.729 V 512 h 15.458 v -70.399 c 0,-4.269 -3.46,-7.729 -7.729,-7.729 z"
   style="fill:#183d4c"
   inkscape:connector-curvature="0" />
</g><g
     id="g151">
</g><g
     id="g153">
</g><g
     id="g155">
</g><g
     id="g157">
</g><g
     id="g159">
</g><g
     id="g161">
</g><g
     id="g163">
</g><g
     id="g165">
</g><g
     id="g167">
</g><g
     id="g169">
</g><g
     id="g171">
</g><g
     id="g173">
</g><g
     id="g175">
</g><g
     id="g177">
</g><g
     id="g179">
</g></g>
</svg>