<?xml version="1.0" encoding="UTF-8" standalone="no"?>
<!-- Generator: Adobe Illustrator 19.0.0, SVG Export Plug-In . SVG Version: 6.00 Build 0)  -->

<svg
   xmlns:dc="http://purl.org/dc/elements/1.1/"
   xmlns:cc="http://creativecommons.org/ns#"
   xmlns:rdf="http://www.w3.org/1999/02/22-rdf-syntax-ns#"
   xmlns:svg="http://www.w3.org/2000/svg"
   xmlns="http://www.w3.org/2000/svg"
   xmlns:sodipodi="http://sodipodi.sourceforge.net/DTD/sodipodi-0.dtd"
   xmlns:inkscape="http://www.inkscape.org/namespaces/inkscape"
   version="1.1"
   id="Capa_1"
   x="0px"
   y="0px"
   viewBox="0 0 60 60"
   style="enable-background:new 0 0 60 60;"
   xml:space="preserve"
   sodipodi:docname="stopwatch_90degrees.svg"
   inkscape:version="0.92.3 (2405546, 2018-03-11)"><metadata
   id="metadata416"><rdf:RDF><cc:Work
       rdf:about=""><dc:format>image/svg+xml</dc:format><dc:type
         rdf:resource="http://purl.org/dc/dcmitype/StillImage" /><dc:title></dc:title></cc:Work></rdf:RDF></metadata><defs
   id="defs414" /><sodipodi:namedview
   pagecolor="#ffffff"
   bordercolor="#666666"
   borderopacity="1"
   objecttolerance="10"
   gridtolerance="10"
   guidetolerance="10"
   inkscape:pageopacity="0"
   inkscape:pageshadow="2"
   inkscape:window-width="1920"
   inkscape:window-height="1017"
   id="namedview412"
   showgrid="false"
   inkscape:zoom="3.9333333"
   inkscape:cx="30"
   inkscape:cy="30"
   inkscape:window-x="-8"
   inkscape:window-y="-8"
   inkscape:window-maximized="1"
   inkscape:current-layer="Capa_1" />















<g
   id="g436"
   transform="rotate(-90,30,30)"><g
     id="g379">
	<path
   id="path375"
   d="m 30,0 c -0.553,0 -1,0.447 -1,1 v 13.292 c 0,0.553 0.447,1 1,1 0.553,0 1,-0.447 1,-1 V 2.018 C 45.979,2.546 58,14.896 58,30 58,45.439 45.439,58 30,58 14.561,58 2,45.439 2,30 2,22.54 4.9,15.521 10.166,10.236 10.557,9.844 10.555,9.212 10.164,8.822 9.772,8.434 9.14,8.434 8.75,8.824 3.107,14.486 0,22.007 0,30 0,46.542 13.458,60 30,60 46.542,60 60,46.542 60,30 60,13.458 46.542,0 30,0 Z"
   inkscape:connector-curvature="0" />
	<path
   id="path377"
   d="m 28.555,33.532 c 0.668,0.919 1.746,1.468 2.883,1.468 0.95,0 1.845,-0.371 2.518,-1.044 0.737,-0.737 1.114,-1.756 1.033,-2.797 -0.081,-1.041 -0.612,-1.99 -1.459,-2.606 L 20.586,19.19 c -0.396,-0.286 -0.945,-0.242 -1.293,0.104 -0.348,0.348 -0.391,0.896 -0.104,1.293 z"
   inkscape:connector-curvature="0" />
</g><g
     id="g381">
</g><g
     id="g383">
</g><g
     id="g385">
</g><g
     id="g387">
</g><g
     id="g389">
</g><g
     id="g391">
</g><g
     id="g393">
</g><g
     id="g395">
</g><g
     id="g397">
</g><g
     id="g399">
</g><g
     id="g401">
</g><g
     id="g403">
</g><g
     id="g405">
</g><g
     id="g407">
</g><g
     id="g409">
</g></g>
</svg>